<svg fill="none" viewBox="0 0 19 19" xmlns="http://www.w3.org/2000/svg"><path fill="#fff" fill-rule="evenodd" d="M16.8318 18.0762a.5618.5618 0 0 1-.1838-.03l-3.0062-1.0228c-2.188 1.1429-4.7642 1.3531-7.115.5761-2.2998-.7619-4.16-2.3647-5.2435-4.5136C.2035 10.9332.031 8.4953.8003 6.2187 2.3875 1.5155 7.5401-1.0294 12.2853.5433c2.2997.762 4.1599 2.3648 5.2435 4.5137 1.0816 2.149 1.254 4.5869.4849 6.8653a8.9643 8.9643 0 0 1-1.2407 2.406l.6175 3.0779a.5588.5588 0 0 1-.1837.533.5741.5741 0 0 1-.3732.1389l-.0019-.0019ZM9.4174 2.9947c1.0949 0 2.1689.289 3.1066.8351v.0019c.269.1558.36.5011.2008.7676-.1572.2665-.5057.3566-.7747.199-.7635-.4467-1.6405-.6813-2.5327-.6813-2.76 0-5.0067 2.2258-5.0067 4.9603 0 .184.0132.3641.0322.5443l.968-.4298-.3486 3.3444-2.7486-1.9706 1.0551-.4673c-.0568-.336-.091-.6757-.091-1.021 0-3.3538 2.7544-6.0826 6.1396-6.0826Zm7.0828 4.5924-.0024-.0017.0005-.0002.0019.002Zm-.0024-.0017-1.0319.4578c.0587.3397.089.685.089 1.034 0 3.3539-2.7543 6.0827-6.1395 6.0827a6.181 6.181 0 0 1-3.1313-.8502.5592.5592 0 0 1-.197-.7694.5688.5688 0 0 1 .7767-.1952c.769.4523 1.6518.6925 2.5535.6925 2.76 0 5.0067-2.2258 5.0067-4.9603 0-.1858-.0133-.3716-.0341-.5555l-.9869.4372.3485-3.3425 2.7463 1.969Z" clip-rule="evenodd"/></svg>
