<svg fill="none" viewBox="0 0 72 72" xmlns="http://www.w3.org/2000/svg">
  <g fill="currentColor" clip-path="url(#a)">
    <path d="M65.43 72c-.25 0-.49-.04-.73-.12l-11.91-4.1a36.04 36.04 0 0 1-28.2 2.3 35.74 35.74 0 0 1-20.8-18.06 35.74 35.74 0 0 1-1.9-27.46A36 36 0 0 1 47.4 1.86a35.74 35.74 0 0 1 20.78 18.06 35.72 35.72 0 0 1 1.92 27.47A36.2 36.2 0 0 1 65.19 57l2.45 12.31a2.23 2.23 0 0 1-2.2 2.68ZM35.97 4.48c-4.8 0-9.59 1.12-14.02 3.33a31.25 31.25 0 0 0-15.8 18.18 31.28 31.28 0 0 0 1.68 24.04A31.25 31.25 0 0 0 26 65.83a31.56 31.56 0 0 0 25.47-2.44 2.24 2.24 0 0 1 1.84-.17l9.15 3.15-1.88-9.46c-.13-.63.03-1.29.42-1.8a31.49 31.49 0 0 0 4.84-9.14 31.28 31.28 0 0 0-1.68-24.04A31.25 31.25 0 0 0 46 6.13a31.48 31.48 0 0 0-10.02-1.64v-.01Z"/>
    <path id="spin" class="spin" d="M48.36 15.02a24.36 24.36 0 0 0-36.29 25.07l-4.18 1.87 10.9 7.89 1.38-13.38-3.83 1.72a19.86 19.86 0 0 1 29.75-19.3c1.07.62 2.45.26 3.07-.8a2.24 2.24 0 0 0-.8-3.07Zm15.75 15.02-10.9-7.89-1.38 13.38 3.9-1.75a19.86 19.86 0 0 1-29.82 19.3 2.26 2.26 0 0 0-3.08.79 2.26 2.26 0 0 0 .78 3.07A24.36 24.36 0 0 0 60 31.87l4.1-1.83h.01Z"/>
  </g>
  <defs>
    <clipPath id="a">
      <path fill="currentColor" d="M0 0h72v72H0z"/>
    </clipPath>
  </defs>
</svg>
