<svg fill="white" viewBox="0 0 32 33" xmlns="http://www.w3.org/2000/svg">
  <circle cx="15.74" cy="16.61" r="14.82" fill="#fff"/>
  <path fill="#fff" d="m27.46 24.76 1.07 5.8-5.55-1.98 4.48-3.82Z"/>
  <path fill="#1F2858" d="M29.08 32.46a1 1 0 0 1-.32-.05l-5.3-1.8a16.17 16.17 0 0 1-12.54 1.01 15.85 15.85 0 0 1-9.23-7.95 15.67 15.67 0 0 1-.86-12.1 16.04 16.04 0 0 1 29.48-2.05 15.8 15.8 0 0 1-1.33 16.34l1.09 5.42a1 1 0 0 1-.33.94 1 1 0 0 1-.65.25ZM15.98 2.72A14.06 14.06 0 0 0 2.74 12.2a13.87 13.87 0 0 0 8.83 17.55c3.75 1.24 7.87.85 11.32-1.08a1 1 0 0 1 .81-.07l4.07 1.38-.83-4.16a.98.98 0 0 1 .18-.8 13.8 13.8 0 0 0-6.68-21.57 14.15 14.15 0 0 0-4.45-.72Z"/>
  <path fill="#1F2858" d="M21.5 7.37a10.88 10.88 0 0 0-5.48-1.48A10.78 10.78 0 0 0 5.36 18.41l-1.86.82 4.84 3.48.62-5.9-1.7.76a8.8 8.8 0 0 1 8.77-9.7c1.56 0 3.1.42 4.45 1.2a1 1 0 0 0 1.37-.35.98.98 0 0 0-.36-1.35Zm7 6.62-4.85-3.47-.6 5.89 1.73-.78a8.8 8.8 0 0 1-8.76 9.72 8.88 8.88 0 0 1-4.5-1.22 1 1 0 0 0-1.37.35.99.99 0 0 0 .35 1.35 10.9 10.9 0 0 0 5.51 1.5A10.78 10.78 0 0 0 26.68 14.8l1.81-.8Z"/>
</svg>
