<svg fill="none" viewBox="0 0 640 79" xmlns="http://www.w3.org/2000/svg">
  <g clip-path="url(#a)">
    <path fill="#FCB63E" d="M71.08 78.58a2.5 2.5 0 0 1-.8-.12L57.33 74a39 39 0 0 1-30.63 2.5A38.86 38.86 0 0 1 4.12 56.88 39.12 39.12 0 0 1 51.5 2.37a38.86 38.86 0 0 1 22.57 19.62 39.18 39.18 0 0 1-3.23 40.3l2.67 13.35c.18.86-.12 1.75-.8 2.32-.44.38-1.04.59-1.6.59l-.03.03ZM39.05 5.2a34.05 34.05 0 0 0-15.23 3.62A33.86 33.86 0 0 0 6.67 28.59 33.88 33.88 0 0 0 8.5 54.7a33.86 33.86 0 0 0 19.77 17.16 34.28 34.28 0 0 0 27.67-2.66 2.34 2.34 0 0 1 1.99-.18l9.95 3.4-2.04-10.28c-.15-.68 0-1.39.44-1.95 2.28-3 4.06-6.34 5.28-9.93a33.88 33.88 0 0 0-1.84-26.1A33.86 33.86 0 0 0 49.96 6.99a34.4 34.4 0 0 0-10.88-1.78h-.03Z"/>
    <path fill="#1F2858" d="M131.14 23.29c0 .71-.24 1.4-.71 1.98-.47.66-1.13.95-1.99.95a3.6 3.6 0 0 1-1.63-.41 16.17 16.17 0 0 0-8.03-2.1c-2.87 0-5.65.65-7.94 1.98a13.8 13.8 0 0 0-5.36 5.54 17.13 17.13 0 0 0-1.92 8.2c0 3.33.65 6.2 1.98 8.6a13.48 13.48 0 0 0 5.45 5.48 15.88 15.88 0 0 0 7.8 1.9c2.87 0 5.63-.71 8.02-2.17a3.61 3.61 0 0 1 1.57-.35c.9 0 1.58.32 2.1 1 .48.6.72 1.25.72 1.93 0 .48-.12.92-.38 1.37-.27.41-.63.74-1.04.97a23.1 23.1 0 0 1-10.97 2.88c-3.88 0-7.46-.86-10.72-2.58a19.34 19.34 0 0 1-7.8-7.5c-1.95-3.29-2.9-7.1-2.9-11.52 0-4.03.92-7.7 2.79-10.97a20.1 20.1 0 0 1 7.67-7.67 21.63 21.63 0 0 1 10.97-2.79c4.05 0 7.52.95 10.93 2.88a2.62 2.62 0 0 1 1.45 2.4h-.06Zm32.09 29.81a15.46 15.46 0 0 1-13.72 7.94c-2.9 0-5.6-.71-8-2.1a15.04 15.04 0 0 1-5.72-5.84 16.89 16.89 0 0 1-2.1-8.42c0-3.14.71-5.95 2.1-8.47a15.4 15.4 0 0 1 5.72-5.9c2.43-1.4 5.1-2.1 8-2.1 2.9 0 5.6.7 8 2.1a14.81 14.81 0 0 1 5.72 5.9 17.2 17.2 0 0 1 2.1 8.47c0 3.14-.7 5.93-2.1 8.42Zm-4.95-14.2a10.12 10.12 0 0 0-3.67-3.97 9.6 9.6 0 0 0-5.13-1.42c-1.86 0-3.58.48-5.12 1.42a10.13 10.13 0 0 0-3.68 3.97 12.32 12.32 0 0 0-1.36 5.78c0 2.13.44 4.03 1.36 5.69.92 1.66 2.13 3 3.68 3.94a9.6 9.6 0 0 0 5.12 1.42 9.6 9.6 0 0 0 5.13-1.42 10.26 10.26 0 0 0 3.67-3.94 11.7 11.7 0 0 0 1.37-5.69c0-2.1-.45-4.09-1.37-5.78Zm59.32 2.61v16.03c0 .83-.27 1.54-.77 2.07-.53.54-1.22.8-2.05.8-.82 0-1.54-.26-2.07-.82a2.87 2.87 0 0 1-.8-2.05V41.57c0-5.24-2.2-7.85-6.6-7.85a8.8 8.8 0 0 0-4.24 1.04 7.54 7.54 0 0 0-3.97 6.81v15.97a2.77 2.77 0 0 1-2.88 2.87c-.83 0-1.5-.26-2.04-.8a2.81 2.81 0 0 1-.77-2.07V41.51c0-2.37-.5-4.24-1.51-5.66s-2.67-2.13-4.98-2.13c-2.31 0-4.33.74-5.87 2.25a7.45 7.45 0 0 0-2.3 5.54v16.03c0 .8-.28 1.48-.8 2.05-.54.56-1.25.82-2.08.82-.83 0-1.52-.26-2.05-.8a2.82 2.82 0 0 1-.77-2.07V31.85c0-.8.27-1.48.8-2.04a2.66 2.66 0 0 1 2.02-.83 2.8 2.8 0 0 1 2.87 2.87v2.1a13.02 13.02 0 0 1 4.18-3.94 10.7 10.7 0 0 1 5.66-1.6c4.95 0 8.17 2.2 9.66 6.61.89-1.69 2.34-3.2 4.38-4.56a11.5 11.5 0 0 1 6.5-2.05c6.98 0 10.51 4.36 10.51 13.1h-.03Zm54.02 0v16.03a2.9 2.9 0 0 1-.78 2.07c-.53.54-1.21.8-2.04.8-.83 0-1.54-.26-2.07-.82a2.87 2.87 0 0 1-.8-2.05V41.57c0-5.24-2.2-7.85-6.61-7.85a8.8 8.8 0 0 0-4.24 1.04 7.53 7.53 0 0 0-3.97 6.81v15.97c0 .8-.27 1.48-.8 2.05-.53.56-1.24.82-2.07.82-.83 0-1.51-.26-2.05-.8a2.81 2.81 0 0 1-.77-2.07V41.51c0-2.37-.5-4.24-1.5-5.66-1.02-1.42-2.68-2.13-4.99-2.13-2.3 0-4.32.74-5.86 2.25a7.45 7.45 0 0 0-2.31 5.54v16.03a2.77 2.77 0 0 1-2.88 2.87c-.83 0-1.51-.26-2.04-.8a2.82 2.82 0 0 1-.77-2.07V31.85c0-.8.26-1.48.8-2.04a2.66 2.66 0 0 1 2.01-.83 2.8 2.8 0 0 1 2.88 2.87v2.1a13.02 13.02 0 0 1 4.17-3.94 10.7 10.7 0 0 1 5.66-1.6c4.95 0 8.18 2.2 9.66 6.61.9-1.69 2.34-3.2 4.39-4.56a11.5 11.5 0 0 1 6.49-2.05c6.99 0 10.51 4.36 10.51 13.1h-.02Zm34.18 3.82c-.56.5-1.2.74-1.98.74H282.7a10.38 10.38 0 0 0 3.31 7.03 10.3 10.3 0 0 0 7.12 2.63c1.92 0 3.46-.26 4.68-.83a11.34 11.34 0 0 0 3.17-2.16 3.44 3.44 0 0 1 1.75-.53c.68 0 1.24.23 1.71.7.48.48.69 1.05.69 1.7 0 .83-.42 1.6-1.22 2.28a14.08 14.08 0 0 1-4.62 2.93c-1.93.8-3.88 1.22-5.9 1.22-3.23 0-6.1-.68-8.56-2.05a14.2 14.2 0 0 1-5.69-5.69 17.01 17.01 0 0 1-2.01-8.3c0-3.34.68-6.3 2.07-8.85 1.4-2.55 3.2-4.5 5.45-5.87a13.83 13.83 0 0 1 7.3-2.04c2.6 0 4.94.65 7.2 1.98a15.41 15.41 0 0 1 7.5 13.24 2.54 2.54 0 0 1-.9 1.84l.06.03Zm-19.6-9.9c-1.64 1.28-2.73 3.2-3.24 5.87h17.72v-.47a7.36 7.36 0 0 0-2.84-5.22 9 9 0 0 0-5.78-2.04 9.5 9.5 0 0 0-5.84 1.9l-.03-.03Zm52.88 5.78v16.33c0 .8-.26 1.48-.8 2.05-.53.56-1.24.82-2.07.82-.83 0-1.48-.26-2.02-.82a2.86 2.86 0 0 1-.8-2.05V41.27c0-2.37-.53-4.23-1.63-5.63-1.06-1.39-2.84-2.1-5.27-2.1-1.6 0-3.05.36-4.36 1.04a7.78 7.78 0 0 0-3.05 2.81 7.12 7.12 0 0 0-1.1 3.88v16.27c0 .8-.26 1.48-.8 2.05-.53.56-1.24.82-2.07.82-.83 0-1.51-.26-2.04-.8a2.81 2.81 0 0 1-.77-2.07V31.85c0-.8.26-1.48.8-2.04a2.66 2.66 0 0 1 2.01-.83 2.8 2.8 0 0 1 2.88 2.87v2.1a12.8 12.8 0 0 1 4.35-4.05 11.61 11.61 0 0 1 5.99-1.66c7.2 0 10.81 4.32 10.81 12.97h-.06Zm15.26-6.66v17.9c0 2 .89 2.99 2.7 2.99.26 0 .65-.06 1.12-.21.48-.15.86-.2 1.16-.2.53 0 .95.2 1.33.64.36.45.54 1.01.54 1.7 0 .82-.48 1.56-1.46 2.16a6 6 0 0 1-3.23.88c-1.33 0-2.51-.14-3.64-.41a5.15 5.15 0 0 1-2.93-2.13c-.86-1.13-1.3-2.88-1.3-5.19V34.55h-3.5a2.54 2.54 0 0 1-2.64-2.64c0-.77.24-1.4.74-1.87.5-.47 1.13-.7 1.9-.7h3.5V24.3c0-.8.26-1.49.8-2.05a2.75 2.75 0 0 1 2.07-.83c.83 0 1.48.27 2.01.83.53.56.8 1.25.8 2.05v5.03h4.98a2.55 2.55 0 0 1 2.64 2.64c0 .77-.24 1.4-.75 1.87-.5.47-1.12.7-1.9.7h-4.97.03Zm51.02-11.26c0 .71-.23 1.4-.7 1.98-.48.66-1.13.95-2 .95a3.6 3.6 0 0 1-1.62-.41 16.17 16.17 0 0 0-8.03-2.1c-2.88 0-5.66.65-7.94 1.98a13.8 13.8 0 0 0-5.37 5.54 17.13 17.13 0 0 0-1.92 8.2c0 3.33.65 6.2 1.98 8.6a13.49 13.49 0 0 0 5.45 5.48 15.88 15.88 0 0 0 7.8 1.9c2.87 0 5.63-.71 8.03-2.17.47-.23 1-.35 1.57-.35.89 0 1.57.32 2.1 1 .48.6.71 1.25.71 1.93 0 .48-.12.92-.38 1.37-.27.41-.63.74-1.04.97a23.08 23.08 0 0 1-10.96 2.88c-3.89 0-7.47-.86-10.73-2.58a19.34 19.34 0 0 1-7.8-7.5c-1.95-3.29-2.9-7.1-2.9-11.52 0-4.03.92-7.7 2.79-10.97a20.1 20.1 0 0 1 7.67-7.67 21.63 21.63 0 0 1 10.97-2.79c4.06 0 7.52.95 10.93 2.88a2.62 2.62 0 0 1 1.45 2.4h-.06Zm32.06 29.81a15.45 15.45 0 0 1-13.72 7.94c-2.9 0-5.6-.71-8-2.1a15.04 15.04 0 0 1-5.7-5.84 16.9 16.9 0 0 1-2.1-8.42c0-3.14.7-5.95 2.1-8.47a15.41 15.41 0 0 1 5.71-5.9c2.43-1.4 5.1-2.1 8-2.1 2.9 0 5.6.7 8 2.1a14.8 14.8 0 0 1 5.72 5.9 17.2 17.2 0 0 1 2.1 8.47c0 3.14-.7 5.93-2.1 8.42Zm-4.95-14.2a10.12 10.12 0 0 0-3.67-3.97 9.61 9.61 0 0 0-5.13-1.42c-1.86 0-3.58.48-5.12 1.42a10.14 10.14 0 0 0-3.68 3.97 12.32 12.32 0 0 0-1.36 5.78c0 2.13.45 4.03 1.36 5.69.92 1.66 2.14 3 3.68 3.94a9.61 9.61 0 0 0 5.12 1.42 9.6 9.6 0 0 0 5.13-1.42 10.25 10.25 0 0 0 3.67-3.94 11.7 11.7 0 0 0 1.37-5.69c0-2.1-.45-4.09-1.37-5.78Zm39.59 2.31v16.33a2.75 2.75 0 0 1-2.87 2.87c-.83 0-1.49-.26-2.02-.82a2.87 2.87 0 0 1-.8-2.05V41.27c0-2.37-.53-4.23-1.63-5.63-1.07-1.39-2.84-2.1-5.27-2.1a9.3 9.3 0 0 0-4.36 1.04 7.79 7.79 0 0 0-3.05 2.81 7.13 7.13 0 0 0-1.1 3.88v16.27c0 .8-.26 1.48-.8 2.05-.53.56-1.24.82-2.07.82-.83 0-1.51-.26-2.04-.8a2.81 2.81 0 0 1-.78-2.07V31.85c0-.8.27-1.48.8-2.04a2.66 2.66 0 0 1 2.02-.83 2.8 2.8 0 0 1 2.87 2.87v2.1a12.8 12.8 0 0 1 4.36-4.05 11.6 11.6 0 0 1 5.98-1.66c7.2 0 10.82 4.32 10.82 12.97h-.06Zm32-11.79c.53.5.77 1.1.77 1.78 0 .36-.15.86-.41 1.51L493 58.64c-.24.53-.6.95-1.01 1.27-.44.33-.92.5-1.45.53a2.63 2.63 0 0 1-1.78-.35c-.53-.33-.95-.8-1.24-1.45l-11.4-25.94c-.2-.6-.3-1.1-.3-1.51 0-.65.27-1.21.77-1.75a2.7 2.7 0 0 1 2.05-.77c.59 0 1.15.15 1.63.45.47.3.86.74 1.15 1.36l9.07 21.07 9.07-21.07c.56-1.22 1.42-1.8 2.57-1.8.77 0 1.4.23 1.93.73Zm31.26 15.91a2.9 2.9 0 0 1-1.99.74h-21.12a10.35 10.35 0 0 0 3.32 7.03 10.3 10.3 0 0 0 7.1 2.63c1.93 0 3.47-.26 4.69-.83a11.34 11.34 0 0 0 3.17-2.16c.6-.35 1.18-.53 1.75-.53a2.35 2.35 0 0 1 2.4 2.4c0 .83-.42 1.6-1.22 2.28a14.08 14.08 0 0 1-4.62 2.93c-1.93.8-3.88 1.22-5.9 1.22-3.23 0-6.1-.68-8.56-2.05a14.2 14.2 0 0 1-5.69-5.69 17.01 17.01 0 0 1-2.01-8.3c0-3.34.68-6.3 2.07-8.85 1.4-2.55 3.2-4.5 5.45-5.87a13.83 13.83 0 0 1 7.3-2.04c2.6 0 4.94.65 7.2 1.98a15.41 15.41 0 0 1 7.5 13.24 2.54 2.54 0 0 1-.9 1.84l.06.03Zm-19.62-9.9c-1.63 1.28-2.72 3.2-3.23 5.87h17.72v-.47a7.36 7.36 0 0 0-2.84-5.22 9 9 0 0 0-5.78-2.04 9.5 9.5 0 0 0-5.84 1.9l-.03-.03Zm44.42-6.36c.77.53 1.15 1.21 1.15 2.01 0 .95-.23 1.69-.74 2.2-.5.5-1.1.73-1.83.73a6 6 0 0 1-1.63-.35 7.16 7.16 0 0 0-1.99-.42c-1.24 0-2.46.45-3.64 1.3a9.36 9.36 0 0 0-2.88 3.56 11.18 11.18 0 0 0-1.1 5.01v14.46c0 .8-.26 1.48-.8 2.04a2.7 2.7 0 0 1-2.07.83c-.83 0-1.5-.26-2.04-.8a2.82 2.82 0 0 1-.77-2.07V31.88c0-.8.26-1.48.8-2.04a2.66 2.66 0 0 1 2.01-.83 2.8 2.8 0 0 1 2.88 2.87v3.05a11.37 11.37 0 0 1 3.97-4.77 10.8 10.8 0 0 1 6.01-1.9c1.04 0 1.96.27 2.7.8h-.03Zm15.61 5.48v17.9c0 2 .9 2.99 2.7 2.99.27 0 .65-.06 1.13-.21.47-.15.86-.2 1.15-.2.53 0 .95.2 1.33.64.36.45.54 1.01.54 1.7 0 .82-.48 1.56-1.45 2.16-.95.59-2.05.88-3.23.88-1.34 0-2.52-.14-3.65-.41a5.16 5.16 0 0 1-2.93-2.13c-.86-1.13-1.3-2.88-1.3-5.19V34.55h-3.5a2.55 2.55 0 0 1-2.64-2.64c0-.77.24-1.4.74-1.87.5-.47 1.13-.7 1.9-.7h3.5V24.3c0-.8.26-1.49.8-2.05a2.75 2.75 0 0 1 2.07-.83c.83 0 1.48.27 2.01.83.54.56.8 1.25.8 2.05v5.03h4.98a2.55 2.55 0 0 1 2.64 2.64c0 .77-.24 1.4-.74 1.87-.5.47-1.13.7-1.9.7h-4.98.03Zm38.31 10.78c-.56.5-1.21.74-1.98.74h-21.13c.27 2.94 1.4 5.28 3.32 7.03a10.3 10.3 0 0 0 7.11 2.63 11 11 0 0 0 4.68-.83 11.35 11.35 0 0 0 3.18-2.16 3.43 3.43 0 0 1 1.74-.53c.68 0 1.25.23 1.72.7.48.48.68 1.05.68 1.7 0 .83-.41 1.6-1.21 2.28a14.08 14.08 0 0 1-4.62 2.93c-1.93.8-3.88 1.22-5.9 1.22-3.23 0-6.1-.68-8.56-2.05a14.2 14.2 0 0 1-5.7-5.69 17.02 17.02 0 0 1-2-8.3c0-3.34.67-6.3 2.07-8.85 1.39-2.55 3.2-4.5 5.45-5.87a13.83 13.83 0 0 1 7.29-2.04c2.6 0 4.95.65 7.2 1.98a15.4 15.4 0 0 1 7.5 13.24 2.54 2.54 0 0 1-.9 1.84l.06.03Zm-19.61-9.9c-1.63 1.28-2.73 3.2-3.23 5.87h17.72v-.47a7.36 7.36 0 0 0-2.85-5.22 9 9 0 0 0-5.77-2.04 9.5 9.5 0 0 0-5.84 1.9l-.03-.03Zm44.41-6.36c.77.53 1.16 1.21 1.16 2.01 0 .95-.24 1.69-.74 2.2-.5.5-1.1.73-1.84.73a6 6 0 0 1-1.63-.35 7.16 7.16 0 0 0-1.98-.42c-1.25 0-2.46.45-3.65 1.3a9.36 9.36 0 0 0-2.87 3.56 11.18 11.18 0 0 0-1.1 5.01v14.46c0 .8-.26 1.48-.8 2.04a2.7 2.7 0 0 1-2.07.83c-.83 0-1.51-.26-2.05-.8a2.82 2.82 0 0 1-.77-2.07V31.88c0-.8.27-1.48.8-2.04a2.66 2.66 0 0 1 2.02-.83 2.8 2.8 0 0 1 2.87 2.87v3.05a11.3 11.3 0 0 1 3.97-4.77 10.8 10.8 0 0 1 6.02-1.9c1.04 0 1.95.27 2.7.8h-.04ZM52.53 16.65a26.45 26.45 0 0 0-39.4 27.26l-4.54 2.05 11.82 8.56L21.93 40l-4.18 1.87a21.6 21.6 0 0 1 32.33-20.98 2.44 2.44 0 0 0 2.48-4.21l-.03-.03Zm17.1 16.33L57.8 24.4l-1.5 14.53 4.23-1.9a21.6 21.6 0 0 1-32.41 20.98 2.45 2.45 0 0 0-3.35.86 2.45 2.45 0 0 0 .86 3.35A26.45 26.45 0 0 0 65.16 35l4.44-1.98.03-.03Z"/>
  </g>
  <defs>
    <clipPath id="a">
      <path fill="#fff" d="M0 0h640v78.93H0z"/>
    </clipPath>
  </defs>
</svg>
