<svg width="19" height="19" fill="none" xmlns="http://www.w3.org/2000/svg" viewBox="0 0 19 19">
<circle cx="9.26" cy="9.08" r="8.41" fill="#fff"/>
<path fill="#fff" d="m15.91 13.7.6 3.28-3.14-1.11 2.54-2.17Z"/>
<path fill="#fff" d="m16.83 18.08-.18-.03-3-1.03a9.18 9.18 0 0 1-7.12.58A9 9 0 0 1 .8 6.22a9.1 9.1 0 0 1 16.73-1.16 8.86 8.86 0 0 1-.76 9.27l.62 3.08c.04.2-.03.4-.18.53a.57.57 0 0 1-.38.14ZM9.4 1.2a7.98 7.98 0 0 0-7.53 5.38 7.87 7.87 0 0 0 5.01 9.96c2.13.7 4.48.48 6.43-.62a.57.57 0 0 1 .46-.04l2.31.79-.47-2.36a.56.56 0 0 1 .1-.45A7.84 7.84 0 0 0 11.92 1.6a8.03 8.03 0 0 0-2.52-.4Z"/>
<path fill="#0073AA" d="M12.52 3.83a6.12 6.12 0 0 0-9.16 6.27l-1.05.47 2.75 1.97.35-3.35-.97.43a4.99 4.99 0 0 1 7.5-4.82c.28.16.63.07.78-.2a.56.56 0 0 0-.2-.77Zm3.98 3.76-2.75-1.97-.35 3.34.99-.44a4.93 4.93 0 0 1-4.97 5.52 5 5 0 0 1-2.56-.7.57.57 0 0 0-.77.2.56.56 0 0 0 .2.77 6.12 6.12 0 0 0 9.18-6.27l1.03-.45Z"/>
</svg>
